<svg width="520" height="150" viewBox="0 0 520 150" fill="none" xmlns="http://www.w3.org/2000/svg" role="img" aria-labelledby="title desc">
  <title id="title">Recent Languages</title>
  <desc id="desc">Recent language activity by GitHub commit file change counts across repositories available to the token.</desc>
  <style>
    text { font-family: -apple-system, BlinkMacSystemFont, "Segoe UI", Helvetica, Arial, sans-serif; }
    .title { fill: #24292f; font-size: 18px; font-weight: 600; }
    .meta { fill: #57606a; font-size: 12px; }
    .name { fill: #111827; font-size: 12px; font-weight: 800; }
    .value { fill: #1f2937; font-size: 11px; font-weight: 800; }
    .other-name { fill: #111827; font-size: 11px; font-weight: 800; }
    .other-value { fill: #1f2937; font-size: 10px; font-weight: 800; }
    @media (prefers-color-scheme: dark) {
      .title, .name, .other-name { fill: #f0f6fc; }
      .meta, .value, .other-value { fill: #c9d1d9; }
    }
  </style>
  <text x="0" y="30" class="title">Recent Languages</text>
  <text x="520" y="30" text-anchor="end" class="meta">last 8 weeks</text>
  <g>
    <path d="M 11 54 H 338.8143570338915 L 338.8143570338915 54 V 76 L 338.8143570338915 76 H 11 Q 0 76 0 65 V 65 Q 0 54 11 54 Z" fill="#f1e05a" />
    <path d="M 338.8143570338915 54 H 423.2575424845434 L 423.2575424845434 54 V 76 L 423.2575424845434 76 H 338.8143570338915 L 338.8143570338915 76 V 54 L 338.8143570338915 54 Z" fill="#3178c6" />
    <path d="M 423.2575424845434 54 H 477.4365038319902 L 477.4365038319902 54 V 76 L 477.4365038319902 76 H 423.2575424845434 L 423.2575424845434 76 V 54 L 423.2575424845434 54 Z" fill="hsl(104 62% 48%)" />
    <path d="M 477.4365038319902 54 H 478.7182519159951 Q 480 54 480 55.28174808400492 V 74.71825191599508 Q 480 76 478.7182519159951 76 H 477.4365038319902 L 477.4365038319902 76 V 54 L 477.4365038319902 54 Z" fill="#8b949e" />
  </g>
  <g transform="translate(518 57)">
    <text x="0" y="0" text-anchor="end" class="other-name">Other</text>
    <text x="0" y="18" text-anchor="end" class="other-value">0.5%</text>
  </g>
  <g transform="translate(169.41 100)">
      <text x="0" y="0" text-anchor="middle" class="name">JavaScript</text>
      <text x="0" y="18" text-anchor="middle" class="value">70.6%</text>
    </g>
    <g transform="translate(381.04 100)">
      <text x="0" y="0" text-anchor="middle" class="name">TypeScript</text>
      <text x="0" y="18" text-anchor="middle" class="value">17.6%</text>
    </g>
    <g transform="translate(450.35 100)">
      <text x="0" y="0" text-anchor="middle" class="name">JSON</text>
      <text x="0" y="18" text-anchor="middle" class="value">11.3%</text>
    </g>
</svg>
