<svg width="1920" height="1218" viewBox="0 0 520 330" fill="none" xmlns="http://www.w3.org/2000/svg" role="img" aria-labelledby="title desc">
  <title id="title">Most Used Languages</title>
  <desc id="desc">Language usage by GitHub language byte counts across repositories available to the token.</desc>
  <style>
    text { font-family: -apple-system, BlinkMacSystemFont, "Segoe UI", Helvetica, Arial, sans-serif; }
    .card-bg { fill: #f6f8fa; stroke: #d0d7de; }
    .title { fill: #24292f; font-size: 18px; font-weight: 600; }
    .meta { fill: #57606a; font-size: 12px; }
    .name { fill: #24292f; font-size: 13px; font-weight: 600; }
    .value { fill: #57606a; font-size: 12px; }
    @media (prefers-color-scheme: dark) {
      .card-bg { fill: #161b22; stroke: #30363d; }
      .title, .name { fill: #c9d1d9; }
      .meta, .value { fill: #8b949e; }
    }
  </style>
  <rect x="0.5" y="0.5" width="519" height="329" rx="8" class="card-bg" />
  <text x="18" y="30" class="title">Most Used Languages</text>
  <text x="502" y="30" text-anchor="end" class="meta">all-time</text>
  <clipPath id="bar"><rect x="18" y="54" width="484" height="10" rx="5" /></clipPath>
  <g clip-path="url(#bar)">
    <rect x="18" y="54" width="484" height="10" fill="#d0d7de" />
    <rect x="18.00" y="54" width="378.63" height="10" fill="#f1e05a" />
    <rect x="396.63" y="54" width="79.40" height="10" fill="#3178c6" />
    <rect x="476.03" y="54" width="20.57" height="10" fill="#178600" />
    <rect x="496.60" y="54" width="3.69" height="10" fill="#b07219" />
    <rect x="500.29" y="54" width="0.87" height="10" fill="#3572A5" />
    <rect x="501.15" y="54" width="0.46" height="10" fill="hsl(336 62% 48%)" />
    <rect x="501.61" y="54" width="0.25" height="10" fill="#012456" />
    <rect x="501.86" y="54" width="0.10" height="10" fill="hsl(287 62% 48%)" />
    <rect x="501.95" y="54" width="0.05" height="10" fill="hsl(286 62% 48%)" />
  </g>
  <g transform="translate(18 92)">
      <circle cx="5" cy="-4" r="5" fill="#f1e05a" />
      <text x="18" y="0" class="name">JavaScript</text>
      <text x="484" y="0" text-anchor="end" class="value">78.2% &#183; 8.7 MB</text>
    </g>
    <g transform="translate(18 120)">
      <circle cx="5" cy="-4" r="5" fill="#3178c6" />
      <text x="18" y="0" class="name">TypeScript</text>
      <text x="484" y="0" text-anchor="end" class="value">16.4% &#183; 1.8 MB</text>
    </g>
    <g transform="translate(18 148)">
      <circle cx="5" cy="-4" r="5" fill="#178600" />
      <text x="18" y="0" class="name">C#</text>
      <text x="484" y="0" text-anchor="end" class="value">4.3% &#183; 485.8 KB</text>
    </g>
    <g transform="translate(18 176)">
      <circle cx="5" cy="-4" r="5" fill="#b07219" />
      <text x="18" y="0" class="name">Java</text>
      <text x="484" y="0" text-anchor="end" class="value">0.8% &#183; 87.1 KB</text>
    </g>
    <g transform="translate(18 204)">
      <circle cx="5" cy="-4" r="5" fill="#3572A5" />
      <text x="18" y="0" class="name">Python</text>
      <text x="484" y="0" text-anchor="end" class="value">0.2% &#183; 20.5 KB</text>
    </g>
    <g transform="translate(18 232)">
      <circle cx="5" cy="-4" r="5" fill="hsl(336 62% 48%)" />
      <text x="18" y="0" class="name">ShaderLab</text>
      <text x="484" y="0" text-anchor="end" class="value">0.1% &#183; 10.8 KB</text>
    </g>
    <g transform="translate(18 260)">
      <circle cx="5" cy="-4" r="5" fill="#012456" />
      <text x="18" y="0" class="name">PowerShell</text>
      <text x="484" y="0" text-anchor="end" class="value">0.1% &#183; 5.8 KB</text>
    </g>
    <g transform="translate(18 288)">
      <circle cx="5" cy="-4" r="5" fill="hsl(287 62% 48%)" />
      <text x="18" y="0" class="name">NSIS</text>
      <text x="484" y="0" text-anchor="end" class="value">0.0% &#183; 2.3 KB</text>
    </g>
    <g transform="translate(18 316)">
      <circle cx="5" cy="-4" r="5" fill="hsl(286 62% 48%)" />
      <text x="18" y="0" class="name">Batchfile</text>
      <text x="484" y="0" text-anchor="end" class="value">0.0% &#183; 1.1 KB</text>
    </g>
</svg>
