<svg width="520" height="330" viewBox="0 0 520 330" fill="none" xmlns="http://www.w3.org/2000/svg" role="img" aria-labelledby="title desc">
  <title id="title">Most Used Languages</title>
  <desc id="desc">Language usage by GitHub language byte counts across repositories available to the token.</desc>
  <style>
    text { font-family: -apple-system, BlinkMacSystemFont, "Segoe UI", Helvetica, Arial, sans-serif; }
    .title { fill: #24292f; font-size: 18px; font-weight: 600; }
    .meta { fill: #57606a; font-size: 12px; }
    .name { fill: #24292f; font-size: 13px; font-weight: 600; }
    .value { fill: #57606a; font-size: 12px; }
    @media (prefers-color-scheme: dark) {
      .title, .name { fill: #c9d1d9; }
      .meta, .value { fill: #8b949e; }
    }
  </style>
  <text x="0" y="30" class="title">Most Used Languages</text>
  <text x="520" y="30" text-anchor="end" class="meta">all-time</text>
  <clipPath id="bar"><rect x="0" y="54" width="520" height="10" rx="5" /></clipPath>
  <g clip-path="url(#bar)">
    <rect x="0" y="54" width="520" height="10" fill="#d0d7de" />
    <rect x="0.00" y="54" width="406.77" height="10" fill="#f1e05a" />
    <rect x="406.77" y="54" width="85.32" height="10" fill="#3178c6" />
    <rect x="492.09" y="54" width="22.10" height="10" fill="#178600" />
    <rect x="514.20" y="54" width="3.96" height="10" fill="#b07219" />
    <rect x="518.16" y="54" width="0.93" height="10" fill="#3572A5" />
    <rect x="519.09" y="54" width="0.49" height="10" fill="hsl(336 62% 48%)" />
    <rect x="519.58" y="54" width="0.27" height="10" fill="#012456" />
    <rect x="519.85" y="54" width="0.10" height="10" fill="hsl(287 62% 48%)" />
    <rect x="519.95" y="54" width="0.05" height="10" fill="hsl(286 62% 48%)" />
  </g>
  <g transform="translate(0 92)">
      <circle cx="5" cy="-4" r="5" fill="#f1e05a" />
      <text x="18" y="0" class="name">JavaScript</text>
      <text x="520" y="0" text-anchor="end" class="value">78.2% &#183; 8.7 MB</text>
    </g>
    <g transform="translate(0 120)">
      <circle cx="5" cy="-4" r="5" fill="#3178c6" />
      <text x="18" y="0" class="name">TypeScript</text>
      <text x="520" y="0" text-anchor="end" class="value">16.4% &#183; 1.8 MB</text>
    </g>
    <g transform="translate(0 148)">
      <circle cx="5" cy="-4" r="5" fill="#178600" />
      <text x="18" y="0" class="name">C#</text>
      <text x="520" y="0" text-anchor="end" class="value">4.3% &#183; 485.8 KB</text>
    </g>
    <g transform="translate(0 176)">
      <circle cx="5" cy="-4" r="5" fill="#b07219" />
      <text x="18" y="0" class="name">Java</text>
      <text x="520" y="0" text-anchor="end" class="value">0.8% &#183; 87.1 KB</text>
    </g>
    <g transform="translate(0 204)">
      <circle cx="5" cy="-4" r="5" fill="#3572A5" />
      <text x="18" y="0" class="name">Python</text>
      <text x="520" y="0" text-anchor="end" class="value">0.2% &#183; 20.5 KB</text>
    </g>
    <g transform="translate(0 232)">
      <circle cx="5" cy="-4" r="5" fill="hsl(336 62% 48%)" />
      <text x="18" y="0" class="name">ShaderLab</text>
      <text x="520" y="0" text-anchor="end" class="value">0.1% &#183; 10.8 KB</text>
    </g>
    <g transform="translate(0 260)">
      <circle cx="5" cy="-4" r="5" fill="#012456" />
      <text x="18" y="0" class="name">PowerShell</text>
      <text x="520" y="0" text-anchor="end" class="value">0.1% &#183; 5.8 KB</text>
    </g>
    <g transform="translate(0 288)">
      <circle cx="5" cy="-4" r="5" fill="hsl(287 62% 48%)" />
      <text x="18" y="0" class="name">NSIS</text>
      <text x="520" y="0" text-anchor="end" class="value">0.0% &#183; 2.3 KB</text>
    </g>
    <g transform="translate(0 316)">
      <circle cx="5" cy="-4" r="5" fill="hsl(286 62% 48%)" />
      <text x="18" y="0" class="name">Batchfile</text>
      <text x="520" y="0" text-anchor="end" class="value">0.0% &#183; 1.1 KB</text>
    </g>
</svg>
