<svg width="1920" height="554" viewBox="0 0 520 150" fill="none" xmlns="http://www.w3.org/2000/svg" role="img" aria-labelledby="title desc">
  <title id="title">Recent Languages</title>
  <desc id="desc">Recent language activity by GitHub commit file change counts across repositories available to the token.</desc>
  <style>
    text { font-family: -apple-system, BlinkMacSystemFont, "Segoe UI", Helvetica, Arial, sans-serif; }
    .card-bg { fill: #f6f8fa; stroke: #d0d7de; }
    .title { fill: #24292f; font-size: 18px; font-weight: 600; }
    .meta { fill: #57606a; font-size: 12px; }
    .name { fill: #111827; font-size: 12px; font-weight: 800; }
    .value { fill: #1f2937; font-size: 11px; font-weight: 800; }
    .other-name { fill: #111827; font-size: 11px; font-weight: 800; }
    .other-value { fill: #1f2937; font-size: 10px; font-weight: 800; }
    @media (prefers-color-scheme: dark) {
      .card-bg { fill: #161b22; stroke: #30363d; }
      .title, .name, .other-name { fill: #f0f6fc; }
      .meta, .value, .other-value { fill: #c9d1d9; }
    }
  </style>
  <rect x="0.5" y="0.5" width="519" height="149" rx="8" class="card-bg" />
  <text x="18" y="30" class="title">Recent Languages</text>
  <text x="502" y="30" text-anchor="end" class="meta">last 8 weeks</text>
  <g>
    <path d="M 29 54 H 327.19488030930165 L 327.19488030930165 54 V 76 L 327.19488030930165 76 H 29 Q 18 76 18 65 V 65 Q 18 54 29 54 Z" fill="#f1e05a" />
    <path d="M 327.19488030930165 54 H 404.23327019463864 L 404.23327019463864 54 V 76 L 404.23327019463864 76 H 327.19488030930165 L 327.19488030930165 76 V 54 L 327.19488030930165 54 Z" fill="#3178c6" />
    <path d="M 404.23327019463864 54 H 453.6612959801697 L 453.6612959801697 54 V 76 L 453.6612959801697 76 H 404.23327019463864 L 404.23327019463864 76 V 54 L 404.23327019463864 54 Z" fill="hsl(104 62% 48%)" />
    <path d="M 453.6612959801697 54 H 454.83064799008486 Q 455.99999999999994 54 455.99999999999994 55.169352009915116 V 74.83064799008488 Q 455.99999999999994 76 454.83064799008486 76 H 453.6612959801697 L 453.6612959801697 76 V 54 L 453.6612959801697 54 Z" fill="#8b949e" />
  </g>
  <g transform="translate(502 57)">
    <text x="0" y="0" text-anchor="end" class="other-name">Other</text>
    <text x="0" y="18" text-anchor="end" class="other-value">0.5%</text>
  </g>
  <g transform="translate(172.60 100)">
      <text x="0" y="0" text-anchor="middle" class="name">JavaScript</text>
      <text x="0" y="18" text-anchor="middle" class="value">70.6%</text>
    </g>
    <g transform="translate(365.71 100)">
      <text x="0" y="0" text-anchor="middle" class="name">TypeScript</text>
      <text x="0" y="18" text-anchor="middle" class="value">17.6%</text>
    </g>
    <g transform="translate(428.95 100)">
      <text x="0" y="0" text-anchor="middle" class="name">JSON</text>
      <text x="0" y="18" text-anchor="middle" class="value">11.3%</text>
    </g>
</svg>
