<svg width="520" height="330" viewBox="0 0 520 330" fill="none" xmlns="http://www.w3.org/2000/svg" role="img" aria-labelledby="title desc">
  <title id="title">Most used programming languages</title>
  <desc id="desc">Language usage across GitHub repositories available to the profile stats token.</desc>
  <style>
    text { font-family: -apple-system, BlinkMacSystemFont, "Segoe UI", Helvetica, Arial, sans-serif; }
    .title { fill: #24292f; font-size: 18px; font-weight: 600; }
    .meta { fill: #57606a; font-size: 12px; }
    .name { fill: #24292f; font-size: 13px; font-weight: 600; }
    .value { fill: #57606a; font-size: 12px; }
    @media (prefers-color-scheme: dark) {
      .title, .name { fill: #c9d1d9; }
      .meta, .value { fill: #8b949e; }
    }
  </style>
  <text x="24" y="30" class="title">Most Used Languages</text>
  <text x="496" y="30" text-anchor="end" class="meta">public + private</text>
  <clipPath id="bar"><rect x="24" y="54" width="472" height="10" rx="5" /></clipPath>
  <g clip-path="url(#bar)">
    <rect x="24" y="54" width="472" height="10" fill="#d0d7de" />
    <rect x="24.00" y="54" width="368.98" height="10" fill="#f1e05a" />
    <rect x="392.98" y="54" width="77.63" height="10" fill="#3178c6" />
    <rect x="470.61" y="54" width="20.11" height="10" fill="#178600" />
    <rect x="490.72" y="54" width="3.61" height="10" fill="#b07219" />
    <rect x="494.32" y="54" width="0.85" height="10" fill="#3572A5" />
    <rect x="495.17" y="54" width="0.45" height="10" fill="hsl(336 62% 48%)" />
    <rect x="495.62" y="54" width="0.24" height="10" fill="#012456" />
    <rect x="495.86" y="54" width="0.09" height="10" fill="hsl(287 62% 48%)" />
    <rect x="495.96" y="54" width="0.04" height="10" fill="hsl(286 62% 48%)" />
  </g>
  <g transform="translate(24 92)">
      <circle cx="5" cy="-4" r="5" fill="#f1e05a" />
      <text x="18" y="0" class="name">JavaScript</text>
      <text x="496" y="0" text-anchor="end" class="value">78.2% · 8.7 MB</text>
    </g>
    <g transform="translate(24 120)">
      <circle cx="5" cy="-4" r="5" fill="#3178c6" />
      <text x="18" y="0" class="name">TypeScript</text>
      <text x="496" y="0" text-anchor="end" class="value">16.4% · 1.8 MB</text>
    </g>
    <g transform="translate(24 148)">
      <circle cx="5" cy="-4" r="5" fill="#178600" />
      <text x="18" y="0" class="name">C#</text>
      <text x="496" y="0" text-anchor="end" class="value">4.3% · 485.8 KB</text>
    </g>
    <g transform="translate(24 176)">
      <circle cx="5" cy="-4" r="5" fill="#b07219" />
      <text x="18" y="0" class="name">Java</text>
      <text x="496" y="0" text-anchor="end" class="value">0.8% · 87.1 KB</text>
    </g>
    <g transform="translate(24 204)">
      <circle cx="5" cy="-4" r="5" fill="#3572A5" />
      <text x="18" y="0" class="name">Python</text>
      <text x="496" y="0" text-anchor="end" class="value">0.2% · 20.5 KB</text>
    </g>
    <g transform="translate(24 232)">
      <circle cx="5" cy="-4" r="5" fill="hsl(336 62% 48%)" />
      <text x="18" y="0" class="name">ShaderLab</text>
      <text x="496" y="0" text-anchor="end" class="value">0.1% · 10.8 KB</text>
    </g>
    <g transform="translate(24 260)">
      <circle cx="5" cy="-4" r="5" fill="#012456" />
      <text x="18" y="0" class="name">PowerShell</text>
      <text x="496" y="0" text-anchor="end" class="value">0.1% · 5.8 KB</text>
    </g>
    <g transform="translate(24 288)">
      <circle cx="5" cy="-4" r="5" fill="hsl(287 62% 48%)" />
      <text x="18" y="0" class="name">NSIS</text>
      <text x="496" y="0" text-anchor="end" class="value">0.0% · 2.3 KB</text>
    </g>
    <g transform="translate(24 316)">
      <circle cx="5" cy="-4" r="5" fill="hsl(286 62% 48%)" />
      <text x="18" y="0" class="name">Batchfile</text>
      <text x="496" y="0" text-anchor="end" class="value">0.0% · 1.1 KB</text>
    </g>
</svg>
