<svg width="520" height="132" viewBox="0 0 520 132" fill="none" xmlns="http://www.w3.org/2000/svg" role="img" aria-labelledby="title desc">
  <title id="title">Recent Languages</title>
  <desc id="desc">Recent language activity by GitHub commit file change counts across repositories available to the token.</desc>
  <style>
    text { font-family: -apple-system, BlinkMacSystemFont, "Segoe UI", Helvetica, Arial, sans-serif; }
    .card-bg { fill: #f6f8fa; stroke: #d0d7de; }
    .title { fill: #24292f; font-size: 18px; font-weight: 600; }
    .meta { fill: #57606a; font-size: 12px; font-weight: 600; }
    .name { fill: #111827; font-size: 12px; font-weight: 800; }
    .value { fill: #1f2937; font-size: 11px; font-weight: 800; }
    .other-name { fill: #111827; font-size: 11px; font-weight: 800; }
    .other-value { fill: #1f2937; font-size: 10px; font-weight: 800; }
    @media (prefers-color-scheme: dark) {
      .card-bg { fill: #161b22; stroke: #30363d; }
      .title, .name, .other-name { fill: #f0f6fc; }
      .meta, .value, .other-value { fill: #c9d1d9; }
    }
  </style>
  <rect x="0.5" y="0.5" width="519" height="131" rx="8" class="card-bg" />
  <text x="18" y="30" class="title">Recent Languages</text>
  <text x="502" y="30" text-anchor="end" class="meta">last 8 weeks</text>
  <g>
    <path d="M 29 54 H 197.9229052466841 L 197.9229052466841 54 V 76 L 197.9229052466841 76 H 29 Q 18 76 18 65 V 65 Q 18 54 29 54 Z" fill="#3178c6" />
    <path d="M 197.9229052466841 54 H 305.480252374914 L 305.480252374914 54 V 76 L 305.480252374914 76 H 197.9229052466841 L 197.9229052466841 76 V 54 L 197.9229052466841 54 Z" fill="#178600" />
    <path d="M 305.480252374914 54 H 378.9025100412579 L 378.9025100412579 54 V 76 L 378.9025100412579 76 H 305.480252374914 L 305.480252374914 76 V 54 L 305.480252374914 54 Z" fill="#f1e05a" />
    <path d="M 378.9025100412579 54 H 420.14731389520244 L 420.14731389520244 54 V 76 L 420.14731389520244 76 H 378.9025100412579 L 378.9025100412579 76 V 54 L 378.9025100412579 54 Z" fill="#3572A5" />
    <path d="M 420.14731389520244 54 H 448.8291851429039 L 448.8291851429039 54 V 76 L 448.8291851429039 76 H 420.14731389520244 L 420.14731389520244 76 V 54 L 420.14731389520244 54 Z" fill="#dea584" />
    <path d="M 448.8291851429039 54 H 452.4145925714519 Q 456 54 456 57.58540742854805 V 72.41459257145195 Q 456 76 452.4145925714519 76 H 448.8291851429039 L 448.8291851429039 76 V 54 L 448.8291851429039 54 Z" fill="#8b949e" />
  </g>
  <g transform="translate(502 57)">
    <text x="0" y="0" text-anchor="end" class="other-name">Other</text>
    <text x="0" y="18" text-anchor="end" class="other-value">1.6%</text>
  </g>
  <g transform="translate(107.96 98)">
      <text x="0" y="0" text-anchor="middle" class="name">TypeScript</text>
      <text x="0" y="18" text-anchor="middle" class="value">41.1%</text>
    </g>
    <g transform="translate(251.70 98)">
      <text x="0" y="0" text-anchor="middle" class="name">C#</text>
      <text x="0" y="18" text-anchor="middle" class="value">24.6%</text>
    </g>
    <g transform="translate(342.19 98)">
      <text x="0" y="0" text-anchor="middle" class="name">JavaScript</text>
      <text x="0" y="18" text-anchor="middle" class="value">16.8%</text>
    </g>
    <g transform="translate(399.52 98)">
      <text x="0" y="0" text-anchor="middle" class="name">Python</text>
      <text x="0" y="18" text-anchor="middle" class="value">9.4%</text>
    </g>
    <g transform="translate(434.49 98)">
      <text x="0" y="0" text-anchor="middle" class="name">Rust</text>
      <text x="0" y="18" text-anchor="middle" class="value">6.5%</text>
    </g>
</svg>
