<svg width="520" height="132" viewBox="0 0 520 132" fill="none" xmlns="http://www.w3.org/2000/svg" role="img" aria-labelledby="title desc">
  <title id="title">Recent Languages</title>
  <desc id="desc">Recent language activity by GitHub commit file change counts across repositories available to the token.</desc>
  <style>
    text { font-family: -apple-system, BlinkMacSystemFont, "Segoe UI", Helvetica, Arial, sans-serif; }
    .card-bg { fill: #f6f8fa; stroke: #d0d7de; }
    .title { fill: #24292f; font-size: 18px; font-weight: 600; }
    .meta { fill: #57606a; font-size: 12px; font-weight: 600; }
    .name { fill: #111827; font-size: 12px; font-weight: 800; }
    .value { fill: #1f2937; font-size: 11px; font-weight: 800; }
    .other-name { fill: #111827; font-size: 11px; font-weight: 800; }
    .other-value { fill: #1f2937; font-size: 10px; font-weight: 800; }
    @media (prefers-color-scheme: dark) {
      .card-bg { fill: #161b22; stroke: #30363d; }
      .title, .name, .other-name { fill: #f0f6fc; }
      .meta, .value, .other-value { fill: #c9d1d9; }
    }
  </style>
  <rect x="0.5" y="0.5" width="519" height="131" rx="8" class="card-bg" />
  <text x="18" y="30" class="title">Recent Languages</text>
  <text x="502" y="30" text-anchor="end" class="meta">last 8 weeks</text>
  <g>
    <path d="M 29 54 H 196.26724917983478 L 196.26724917983478 54 V 76 L 196.26724917983478 76 H 29 Q 18 76 18 65 V 65 Q 18 54 29 54 Z" fill="#3178c6" />
    <path d="M 196.26724917983478 54 H 301.88382955648757 L 301.88382955648757 54 V 76 L 301.88382955648757 76 H 196.26724917983478 L 196.26724917983478 76 V 54 L 196.26724917983478 54 Z" fill="#178600" />
    <path d="M 301.88382955648757 54 H 373.24506247421533 L 373.24506247421533 54 V 76 L 373.24506247421533 76 H 301.88382955648757 L 301.88382955648757 76 V 54 L 301.88382955648757 54 Z" fill="#f1e05a" />
    <path d="M 373.24506247421533 54 H 413.75286288603417 L 413.75286288603417 54 V 76 L 413.75286288603417 76 H 373.24506247421533 L 373.24506247421533 76 V 54 L 373.24506247421533 54 Z" fill="#3572A5" />
    <path d="M 413.75286288603417 54 H 441.91719792094494 L 441.91719792094494 54 V 76 L 441.91719792094494 76 H 413.75286288603417 L 413.75286288603417 76 V 54 L 413.75286288603417 54 Z" fill="#dea584" />
    <path d="M 441.91719792094494 54 H 448.9585989604725 Q 456 54 456 61.04140103952753 V 68.95859896047247 Q 456 76 448.9585989604725 76 H 441.91719792094494 L 441.91719792094494 76 V 54 L 441.91719792094494 54 Z" fill="#8b949e" />
  </g>
  <g transform="translate(502 57)">
    <text x="0" y="0" text-anchor="end" class="other-name">Other</text>
    <text x="0" y="18" text-anchor="end" class="other-value">3.2%</text>
  </g>
  <g transform="translate(107.13 98)">
      <text x="0" y="0" text-anchor="middle" class="name">TypeScript</text>
      <text x="0" y="18" text-anchor="middle" class="value">40.7%</text>
    </g>
    <g transform="translate(249.08 98)">
      <text x="0" y="0" text-anchor="middle" class="name">C#</text>
      <text x="0" y="18" text-anchor="middle" class="value">24.1%</text>
    </g>
    <g transform="translate(337.56 98)">
      <text x="0" y="0" text-anchor="middle" class="name">JavaScript</text>
      <text x="0" y="18" text-anchor="middle" class="value">16.3%</text>
    </g>
    <g transform="translate(393.50 98)">
      <text x="0" y="0" text-anchor="middle" class="name">Python</text>
      <text x="0" y="18" text-anchor="middle" class="value">9.2%</text>
    </g>
    <g transform="translate(427.84 98)">
      <text x="0" y="0" text-anchor="middle" class="name">Rust</text>
      <text x="0" y="18" text-anchor="middle" class="value">6.4%</text>
    </g>
</svg>
