<svg width="520" height="132" viewBox="0 0 520 132" fill="none" xmlns="http://www.w3.org/2000/svg" role="img" aria-labelledby="title desc">
  <title id="title">Recent Languages</title>
  <desc id="desc">Recent language activity by GitHub commit file change counts across repositories available to the token.</desc>
  <style>
    text { font-family: -apple-system, BlinkMacSystemFont, "Segoe UI", Helvetica, Arial, sans-serif; }
    .card-bg { fill: #f6f8fa; stroke: #d0d7de; }
    .title { fill: #24292f; font-size: 18px; font-weight: 600; }
    .meta { fill: #57606a; font-size: 12px; font-weight: 600; }
    .name { fill: #111827; font-size: 12px; font-weight: 800; }
    .value { fill: #1f2937; font-size: 11px; font-weight: 800; }
    .other-name { fill: #111827; font-size: 11px; font-weight: 800; }
    .other-value { fill: #1f2937; font-size: 10px; font-weight: 800; }
    @media (prefers-color-scheme: dark) {
      .card-bg { fill: #161b22; stroke: #30363d; }
      .title, .name, .other-name { fill: #f0f6fc; }
      .meta, .value, .other-value { fill: #c9d1d9; }
    }
  </style>
  <rect x="0.5" y="0.5" width="519" height="131" rx="8" class="card-bg" />
  <text x="18" y="30" class="title">Recent Languages</text>
  <text x="502" y="30" text-anchor="end" class="meta">last 8 weeks</text>
  <g>
    <path d="M 29 54 H 361.3719470206893 L 361.3719470206893 54 V 76 L 361.3719470206893 76 H 29 Q 18 76 18 65 V 65 Q 18 54 29 54 Z" fill="#f1e05a" />
    <path d="M 361.3719470206893 54 H 453.20807096994326 L 453.20807096994326 54 V 76 L 453.20807096994326 76 H 361.3719470206893 L 361.3719470206893 76 V 54 L 361.3719470206893 54 Z" fill="#3178c6" />
    <path d="M 453.20807096994326 54 H 454.60403548497163 Q 456 54 456 55.39596451502838 V 74.60403548497162 Q 456 76 454.60403548497163 76 H 453.20807096994326 L 453.20807096994326 76 V 54 L 453.20807096994326 54 Z" fill="#8b949e" />
  </g>
  <g transform="translate(502 57)">
    <text x="0" y="0" text-anchor="end" class="other-name">Other</text>
    <text x="0" y="18" text-anchor="end" class="other-value">0.6%</text>
  </g>
  <g transform="translate(189.69 98)">
      <text x="0" y="0" text-anchor="middle" class="name">JavaScript</text>
      <text x="0" y="18" text-anchor="middle" class="value">78.4%</text>
    </g>
    <g transform="translate(407.29 98)">
      <text x="0" y="0" text-anchor="middle" class="name">TypeScript</text>
      <text x="0" y="18" text-anchor="middle" class="value">21.0%</text>
    </g>
</svg>
