<svg width="520" height="132" viewBox="0 0 520 132" fill="none" xmlns="http://www.w3.org/2000/svg" role="img" aria-labelledby="title desc">
  <title id="title">Recent Languages</title>
  <desc id="desc">Recent language activity by GitHub commit file change counts across repositories available to the token.</desc>
  <style>
    text { font-family: -apple-system, BlinkMacSystemFont, "Segoe UI", Helvetica, Arial, sans-serif; }
    .card-bg { fill: #f6f8fa; stroke: #d0d7de; }
    .title { fill: #24292f; font-size: 18px; font-weight: 600; }
    .meta { fill: #57606a; font-size: 12px; font-weight: 600; }
    .name { fill: #111827; font-size: 12px; font-weight: 800; }
    .value { fill: #1f2937; font-size: 11px; font-weight: 800; }
    .other-name { fill: #111827; font-size: 11px; font-weight: 800; }
    .other-value { fill: #1f2937; font-size: 10px; font-weight: 800; }
    @media (prefers-color-scheme: dark) {
      .card-bg { fill: #161b22; stroke: #30363d; }
      .title, .name, .other-name { fill: #f0f6fc; }
      .meta, .value, .other-value { fill: #c9d1d9; }
    }
  </style>
  <rect x="0.5" y="0.5" width="519" height="131" rx="8" class="card-bg" />
  <text x="18" y="30" class="title">Recent Languages</text>
  <text x="502" y="30" text-anchor="end" class="meta">last 8 weeks</text>
  <g>
    <path d="M 29 54 H 195.6380770272533 L 195.6380770272533 54 V 76 L 195.6380770272533 76 H 29 Q 18 76 18 65 V 65 Q 18 54 29 54 Z" fill="#3178c6" />
    <path d="M 195.6380770272533 54 H 301.45522874651436 L 301.45522874651436 54 V 76 L 301.45522874651436 76 H 195.6380770272533 L 195.6380770272533 76 V 54 L 195.6380770272533 54 Z" fill="#178600" />
    <path d="M 301.45522874651436 54 H 373.08938666418936 L 373.08938666418936 54 V 76 L 373.08938666418936 76 H 301.45522874651436 L 301.45522874651436 76 V 54 L 301.45522874651436 54 Z" fill="#f1e05a" />
    <path d="M 373.08938666418936 54 H 413.6721355410108 L 413.6721355410108 54 V 76 L 413.6721355410108 76 H 373.08938666418936 L 373.08938666418936 76 V 54 L 373.08938666418936 54 Z" fill="#3572A5" />
    <path d="M 413.6721355410108 54 H 441.88995610320785 L 441.88995610320785 54 V 76 L 441.88995610320785 76 H 413.6721355410108 L 413.6721355410108 76 V 54 L 413.6721355410108 54 Z" fill="#dea584" />
    <path d="M 441.88995610320785 54 H 448.9449780516039 Q 455.99999999999994 54 455.99999999999994 61.05502194839604 V 68.94497805160395 Q 455.99999999999994 76 448.9449780516039 76 H 441.88995610320785 L 441.88995610320785 76 V 54 L 441.88995610320785 54 Z" fill="#8b949e" />
  </g>
  <g transform="translate(502 57)">
    <text x="0" y="0" text-anchor="end" class="other-name">Other</text>
    <text x="0" y="18" text-anchor="end" class="other-value">3.2%</text>
  </g>
  <g transform="translate(106.82 98)">
      <text x="0" y="0" text-anchor="middle" class="name">TypeScript</text>
      <text x="0" y="18" text-anchor="middle" class="value">40.6%</text>
    </g>
    <g transform="translate(248.55 98)">
      <text x="0" y="0" text-anchor="middle" class="name">C#</text>
      <text x="0" y="18" text-anchor="middle" class="value">24.2%</text>
    </g>
    <g transform="translate(337.27 98)">
      <text x="0" y="0" text-anchor="middle" class="name">JavaScript</text>
      <text x="0" y="18" text-anchor="middle" class="value">16.4%</text>
    </g>
    <g transform="translate(393.38 98)">
      <text x="0" y="0" text-anchor="middle" class="name">Python</text>
      <text x="0" y="18" text-anchor="middle" class="value">9.3%</text>
    </g>
    <g transform="translate(427.78 98)">
      <text x="0" y="0" text-anchor="middle" class="name">Rust</text>
      <text x="0" y="18" text-anchor="middle" class="value">6.4%</text>
    </g>
</svg>
