<svg width="520" height="132" viewBox="0 0 520 132" fill="none" xmlns="http://www.w3.org/2000/svg" role="img" aria-labelledby="title desc">
  <title id="title">Recent Languages</title>
  <desc id="desc">Recent language activity by GitHub commit file change counts across repositories available to the token.</desc>
  <style>
    text { font-family: -apple-system, BlinkMacSystemFont, "Segoe UI", Helvetica, Arial, sans-serif; }
    .card-bg { fill: #f6f8fa; stroke: #d0d7de; }
    .title { fill: #24292f; font-size: 18px; font-weight: 600; }
    .meta { fill: #57606a; font-size: 12px; font-weight: 600; }
    .name { fill: #111827; font-size: 12px; font-weight: 800; }
    .value { fill: #1f2937; font-size: 11px; font-weight: 800; }
    .other-name { fill: #111827; font-size: 11px; font-weight: 800; }
    .other-value { fill: #1f2937; font-size: 10px; font-weight: 800; }
    @media (prefers-color-scheme: dark) {
      .card-bg { fill: #161b22; stroke: #30363d; }
      .title, .name, .other-name { fill: #f0f6fc; }
      .meta, .value, .other-value { fill: #c9d1d9; }
    }
  </style>
  <rect x="0.5" y="0.5" width="519" height="131" rx="8" class="card-bg" />
  <text x="18" y="30" class="title">Recent Languages</text>
  <text x="502" y="30" text-anchor="end" class="meta">last 8 weeks</text>
  <g>
    <path d="M 29 54 H 200.917299670856 L 200.917299670856 54 V 76 L 200.917299670856 76 H 29 Q 18 76 18 65 V 65 Q 18 54 29 54 Z" fill="#3178c6" />
    <path d="M 200.917299670856 54 H 310.2646863723015 L 310.2646863723015 54 V 76 L 310.2646863723015 76 H 200.917299670856 L 200.917299670856 76 V 54 L 200.917299670856 54 Z" fill="#178600" />
    <path d="M 310.2646863723015 54 H 384.90888517318183 L 384.90888517318183 54 V 76 L 384.90888517318183 76 H 310.2646863723015 L 310.2646863723015 76 V 54 L 310.2646863723015 54 Z" fill="#f1e05a" />
    <path d="M 384.90888517318183 54 H 426.8397435099743 L 426.8397435099743 54 V 76 L 426.8397435099743 76 H 384.90888517318183 L 384.90888517318183 76 V 54 L 384.90888517318183 54 Z" fill="#3572A5" />
    <path d="M 426.8397435099743 54 H 455.9989571795379 L 455.9989571795379 54 V 76 L 455.9989571795379 76 H 426.8397435099743 L 426.8397435099743 76 V 54 L 426.8397435099743 54 Z" fill="#dea584" />
    <path d="M 455.9989571795379 54 H 455.99947858976896 Q 456 54 456 54.00052141023103 V 75.99947858976897 Q 456 76 455.99947858976896 76 H 455.9989571795379 L 455.9989571795379 76 V 54 L 455.9989571795379 54 Z" fill="#8b949e" />
  </g>
  <g transform="translate(502 57)">
    <text x="0" y="0" text-anchor="end" class="other-name">Other</text>
    <text x="0" y="18" text-anchor="end" class="other-value">0.0%</text>
  </g>
  <g transform="translate(109.46 98)">
      <text x="0" y="0" text-anchor="middle" class="name">TypeScript</text>
      <text x="0" y="18" text-anchor="middle" class="value">41.8%</text>
    </g>
    <g transform="translate(255.59 98)">
      <text x="0" y="0" text-anchor="middle" class="name">C#</text>
      <text x="0" y="18" text-anchor="middle" class="value">25.0%</text>
    </g>
    <g transform="translate(347.59 98)">
      <text x="0" y="0" text-anchor="middle" class="name">JavaScript</text>
      <text x="0" y="18" text-anchor="middle" class="value">17.0%</text>
    </g>
    <g transform="translate(405.87 98)">
      <text x="0" y="0" text-anchor="middle" class="name">Python</text>
      <text x="0" y="18" text-anchor="middle" class="value">9.6%</text>
    </g>
    <g transform="translate(441.42 98)">
      <text x="0" y="0" text-anchor="middle" class="name">Rust</text>
      <text x="0" y="18" text-anchor="middle" class="value">6.7%</text>
    </g>
</svg>
