<svg width="400" height="120" viewBox="0 0 400 120" fill="none" xmlns="http://www.w3.org/2000/svg" role="img" aria-labelledby="title desc">
  <title id="title">BCUninstaller / Bulk-Crap-Uninstaller</title>
  <desc id="desc">Cached repository card fallback for Bulk Crap Uninstaller.</desc>
  <defs>
    <linearGradient id="bg" x1="0" y1="0" x2="400" y2="120" gradientUnits="userSpaceOnUse">
      <stop stop-color="#0d1117"/>
      <stop offset="1" stop-color="#161b22"/>
    </linearGradient>
    <filter id="shadow" x="-10" y="-10" width="420" height="140" color-interpolation-filters="sRGB">
      <feDropShadow dx="0" dy="6" stdDeviation="10" flood-color="#010409" flood-opacity="0.35"/>
    </filter>
  </defs>
  <rect x="1" y="1" width="398" height="118" rx="6" fill="url(#bg)" stroke="#30363d" filter="url(#shadow)"/>
  <g transform="translate(24 22)">
    <path d="M10 0C4.48 0 0 4.59 0 10.25c0 4.53 2.87 8.37 6.84 9.73.5.09.68-.22.68-.49 0-.24-.01-1.04-.01-1.89-2.51.47-3.16-.63-3.36-1.21-.11-.3-.6-1.21-1.03-1.45-.35-.19-.85-.66-.01-.67.79-.01 1.35.74 1.54 1.05.9 1.55 2.34 1.11 2.91.85.09-.67.35-1.11.64-1.37-2.22-.26-4.55-1.14-4.55-5.05 0-1.12.39-2.03 1.03-2.74-.1-.26-.45-1.3.1-2.7 0 0 .84-.27 2.75 1.05A9.28 9.28 0 0 1 10 5.02c.85 0 1.71.12 2.51.34 1.91-1.33 2.75-1.05 2.75-1.05.55 1.4.2 2.44.1 2.7.64.71 1.03 1.62 1.03 2.74 0 3.92-2.34 4.79-4.57 5.05.36.32.68.94.68 1.9 0 1.37-.01 2.47-.01 2.8 0 .27.18.59.69.49A10.14 10.14 0 0 0 20 10.25C20 4.59 15.52 0 10 0Z" fill="#8b949e"/>
    <text x="32" y="16" fill="#58a6ff" font-family="Segoe UI, Ubuntu, sans-serif" font-size="16" font-weight="600">BCUninstaller / Bulk-Crap-Uninstaller</text>
    <text x="0" y="50" fill="#c9d1d9" font-family="Segoe UI, Ubuntu, sans-serif" font-size="13">Bulk Crap Uninstaller removes unwanted Windows</text>
    <text x="0" y="68" fill="#c9d1d9" font-family="Segoe UI, Ubuntu, sans-serif" font-size="13">apps and cleans up leftover uninstall data.</text>
    <circle cx="5" cy="92" r="5" fill="#178600"/>
    <text x="18" y="96" fill="#8b949e" font-family="Segoe UI, Ubuntu, sans-serif" font-size="12">C#</text>
    <text x="58" y="96" fill="#8b949e" font-family="Segoe UI, Ubuntu, sans-serif" font-size="12">Maintained</text>
    <text x="132" y="96" fill="#8b949e" font-family="Segoe UI, Ubuntu, sans-serif" font-size="12">Open Source</text>
  </g>
</svg>
