<svg width="720" height="405" viewBox="0 0 720 405" fill="none" xmlns="http://www.w3.org/2000/svg" role="img" aria-labelledby="title desc">
  <title id="title">parkingpage-comingsoon</title>
  <desc id="desc">Static coming soon page for branding, deployed under the MIT licence.</desc>
  <style>
    text { font-family: -apple-system, BlinkMacSystemFont, "Segoe UI", Helvetica, Arial, sans-serif; }
    .title { fill: #f0f6fc; font-size: 30px; font-weight: 700; }
    .body { fill: #c9d1d9; font-size: 20px; font-weight: 500; }
    .muted { fill: #8b949e; font-size: 17px; font-weight: 500; }
    .badge-text { fill: #ffffff; font-size: 15px; font-weight: 700; }
    .badge-dark { fill: #24292f; }
  </style>
  <rect x="0.5" y="0.5" width="719" height="404" rx="18" fill="#0d1117" stroke="#30363d"/>

  <text class="title" x="30" y="58">parkingpage-comingsoon</text>

  <g transform="translate(586 32)">
    <rect width="104" height="28" rx="7" fill="#24292f"/>
    <rect x="57" width="47" height="28" rx="7" fill="#2EA44F"/>
    <path d="M57 0h8v28h-8z" fill="#2EA44F"/>
    <text class="badge-text" x="16" y="19">Repo</text>
    <text class="badge-text" x="75" y="19">&#8599;</text>
  </g>

  <g transform="translate(30 92)">
    <g>
      <rect width="154" height="24" rx="5" fill="#24292f"/>
      <rect x="61" width="93" height="24" rx="5" fill="#F7B731"/>
      <path d="M61 0h7v24h-7z" fill="#F7B731"/>
      <text class="badge-text" x="12" y="17">Usage</text>
      <text class="badge-text" x="78" y="17">Branding</text>
    </g>
    <g transform="translate(166 0)">
      <rect width="118" height="24" rx="5" fill="#24292f"/>
      <rect x="69" width="49" height="24" rx="5" fill="#F7B731"/>
      <path d="M69 0h7v24h-7z" fill="#F7B731"/>
      <text class="badge-text" x="12" y="17">Licence</text>
      <text class="badge-text" x="83" y="17">MIT</text>
    </g>
    <g transform="translate(296 0)">
      <rect width="144" height="24" rx="5" fill="#24292f"/>
      <rect x="58" width="86" height="24" rx="5" fill="#2EA44F"/>
      <path d="M58 0h7v24h-7z" fill="#2EA44F"/>
      <text class="badge-text" x="12" y="17">Status</text>
      <text class="badge-text" x="74" y="17">Deployed</text>
    </g>
  </g>

  <text class="body" x="30" y="166">A ready-to-customize coming soon page for launches,</text>
  <text class="body" x="30" y="198">waitlists, and early-access campaigns.</text>
  <text class="body" x="30" y="240">It combines a glass-style content panel with WebGL motion,</text>
  <text class="body" x="30" y="272">draggable physics typography, and an optional waitlist form.</text>

  <g transform="translate(30 342)">
    <rect width="110" height="24" rx="5" fill="#24292f"/>
    <rect x="44" width="66" height="24" rx="5" fill="#0B3D91"/>
    <path d="M44 0h7v24h-7z" fill="#0B3D91"/>
    <text class="badge-text" x="12" y="17">Web</text>
    <text class="badge-text" x="59" y="17">Static</text>
  </g>
  <text class="muted" x="30" y="383">Launch page template with static deployment and branding-focused setup.</text>
</svg>
